<?xml version="1.0" encoding="UTF-8" standalone="no"?>
<!-- Created with Inkscape (http://www.inkscape.org/) -->

<svg
   width="1980"
   height="700"
   viewBox="0 0 1980 700"
   version="1.1"
   id="svg5"
   xml:space="preserve"
   inkscape:version="1.2.1 (9c6d41e410, 2022-07-14, custom)"
   sodipodi:docname="opencircuitdesign9.svg"
   xmlns:inkscape="http://www.inkscape.org/namespaces/inkscape"
   xmlns:sodipodi="http://sodipodi.sourceforge.net/DTD/sodipodi-0.dtd"
   xmlns="http://www.w3.org/2000/svg"
   xmlns:svg="http://www.w3.org/2000/svg"><sodipodi:namedview
     id="namedview7"
     pagecolor="#ffffff"
     bordercolor="#666666"
     borderopacity="1.0"
     inkscape:showpageshadow="2"
     inkscape:pageopacity="0.0"
     inkscape:pagecheckerboard="0"
     inkscape:deskcolor="#d1d1d1"
     inkscape:document-units="px"
     showgrid="false"
     inkscape:zoom="0.5096119"
     inkscape:cx="888.91174"
     inkscape:cy="597.51352"
     inkscape:window-width="1920"
     inkscape:window-height="994"
     inkscape:window-x="0"
     inkscape:window-y="31"
     inkscape:window-maximized="1"
     inkscape:current-layer="layer1" /><defs
     id="defs2" /><g
     inkscape:label="Layer 1"
     inkscape:groupmode="layer"
     id="layer1"><g
       id="g936"
       transform="matrix(0,1.3333333,1.3333333,0,318.12563,-31.62255)"><text
         xml:space="preserve"
         transform="matrix(0,1,1,0,72.6414,279.547)"
         style="font-variant:normal;font-weight:bold;font-size:36.7668px;font-family:Helvetica;-inkscape-font-specification:Helvetica-Bold;writing-mode:lr-tb;fill:#000000;fill-opacity:1;fill-rule:nonzero;stroke:none"
         id="text940"><tspan
           x="0 28.60457 51.069084 71.511429 93.975945 106.21928 130.74274 153.20726 175.67177 189.97406 210.4164 230.85873 241.07991 265.60336 292.14899 318.69461 328.9158 351.38031 373.84482 396.30933 406.53052"
           y="0"
           sodipodi:role="line"
           id="tspan938">Open-Source EDA Tools</tspan></text></g><g
       id="g942"
       transform="matrix(0,1.3333333,1.3333333,0,318.12563,-31.62255)"><text
         xml:space="preserve"
         transform="matrix(0,1,1,0,110.892,145.435)"
         style="font-variant:normal;font-weight:bold;font-size:30.639px;font-family:Helvetica;-inkscape-font-specification:Helvetica-Bold;writing-mode:lr-tb;fill:#a52a2a;fill-opacity:1;fill-rule:nonzero;stroke:none"
         id="text946"><tspan
           x="0 20.436213 37.471497 54.506783 83.43 100.46528 110.66807 127.70335 139.62192 148.13957 168.57578 190.69714 211.13335 228.16864 245.20392 262.2392 270.75684 279.27448 297.9949 315.03021 325.23297 342.26828 350.78592 359.30356 376.33884 395.05927 403.5769 422.29733 430.81497 439.33261 456.36792 473.4032 490.43848 507.47375 517.67651 534.71185 561.94989 570.46753 590.90375 601.10657 613.02509 631.74554 648.78082 658.98358 677.70404 689.62262"
           y="0"
           sodipodi:role="line"
           id="tspan944">SkyWater SKY130 Installed Filesystem Structure</tspan></text></g><path
       d="m 768.10776,146.12584 v 76.99697 h 314.98714 v -76.99697 z"
       style="fill:#ffffff;fill-opacity:1;fill-rule:evenodd;stroke:none;stroke-width:0.114229"
       id="path948" /><path
       d="m 768.10776,146.12584 v 76.99697 h 314.98714 v -76.99697 z"
       style="fill:none;stroke:#ffffff;stroke-width:1.13745;stroke-linecap:round;stroke-linejoin:bevel;stroke-miterlimit:6;stroke-dasharray:none;stroke-opacity:1"
       id="path950" /><g
       id="g952"
       transform="matrix(0,1.1422883,1.1422883,0,374.49577,3.3272402)"><text
         xml:space="preserve"
         transform="matrix(0,1,1,0,167.905,375.161)"
         style="font-variant:normal;font-weight:bold;font-size:30.639px;font-family:Helvetica;-inkscape-font-specification:Helvetica-Bold;writing-mode:lr-tb;fill:#000000;fill-opacity:1;fill-rule:nonzero;stroke:none"
         id="text956"><tspan
           x="0 8.517642 27.238071 44.273354 56.191925 64.709564 81.74485 100.46528 117.50056 129.41913 146.45442 154.97206 173.69249 192.41292 209.4482"
           y="0"
           sodipodi:role="line"
           id="tspan954">/usr/share/pdk/</tspan></text></g><path
       d="m 831.1061,237.12167 v 76.99697 h 209.9914 v -76.99697 z"
       style="fill:#ffffff;fill-opacity:1;fill-rule:evenodd;stroke:none;stroke-width:0.114229"
       id="path958" /><path
       d="m 831.1061,237.12167 v 76.99697 h 209.9914 v -76.99697 z"
       style="fill:none;stroke:#ffffff;stroke-width:1.13745;stroke-linecap:round;stroke-linejoin:bevel;stroke-miterlimit:6;stroke-dasharray:none;stroke-opacity:1"
       id="path960" /><g
       id="g962"
       transform="matrix(0,1.1422883,1.1422883,0,374.49577,3.3272402)"><text
         xml:space="preserve"
         transform="matrix(0,1,1,0,247.566,423.358)"
         style="font-variant:normal;font-weight:bold;font-size:30.639px;font-family:Helvetica;-inkscape-font-specification:Helvetica-Bold;writing-mode:lr-tb;fill:#000000;fill-opacity:1;fill-rule:nonzero;stroke:none"
         id="text966"><tspan
           x="0 17.035284 34.070568 51.10585 68.141136 85.176422 102.2117 124.33306"
           y="0"
           sodipodi:role="line"
           id="tspan964">sky130A/</tspan></text></g><path
       d="m 768.10776,342.11739 v 76.99697 h 209.99145 v -76.99697 z"
       style="fill:#ffffff;fill-opacity:1;fill-rule:evenodd;stroke:none;stroke-width:0.114229"
       id="path968" /><path
       d="m 768.10776,342.11739 v 76.99697 h 209.99145 v -76.99697 z"
       style="fill:none;stroke:#ffffff;stroke-width:1.13745;stroke-linecap:round;stroke-linejoin:bevel;stroke-miterlimit:6;stroke-dasharray:none;stroke-opacity:1"
       id="path970" /><path
       d="m 985.09909,342.11739 v 76.99697 h 209.99141 v -76.99697 z"
       style="fill:#ffffff;fill-opacity:1;fill-rule:evenodd;stroke:none;stroke-width:0.114229"
       id="path972" /><path
       d="m 985.09909,342.11739 v 76.99697 h 209.99141 v -76.99697 z"
       style="fill:none;stroke:#ffffff;stroke-width:1.13745;stroke-linecap:round;stroke-linejoin:bevel;stroke-miterlimit:6;stroke-dasharray:none;stroke-opacity:1"
       id="path974" /><g
       id="g976"
       transform="matrix(0,1.1422883,1.1422883,0,374.49577,3.3272402)"><text
         xml:space="preserve"
         transform="matrix(0,1,1,0,339.484,563.135)"
         style="font-variant:normal;font-weight:bold;font-size:30.639px;font-family:Helvetica;-inkscape-font-specification:Helvetica-Bold;writing-mode:lr-tb;fill:#000000;fill-opacity:1;fill-rule:nonzero;stroke:none"
         id="text980"><tspan
           x="0 8.517642 17.035284 35.755714 52.790997 61.30864 73.227211 90.262497 100.46528 -189.96201 -181.44435 -172.92671 -154.20628 -137.17101 -128.65337 -118.45058 -101.41529 -84.380005 -65.659576"
           y="0"
           sodipodi:role="line"
           id="tspan978">libs.ref/libs.tech/</tspan></text></g><path
       d="M 936.10182,243.24663 V 203.87309"
       style="fill:none;stroke:#2e8b57;stroke-width:0.909961;stroke-linecap:round;stroke-linejoin:bevel;stroke-miterlimit:6;stroke-dasharray:none;stroke-opacity:1"
       id="path982" /><path
       d="m 941.35178,237.99667 c -3.2818,6.56244 -3.2818,8.5306 -5.24996,18.3737 -1.96931,-9.8431 -1.96931,-11.81126 -5.24996,-18.3737 3.93747,1.31249 6.56245,1.31249 10.49992,0"
       style="fill:#2e8b57;fill-opacity:1;fill-rule:evenodd;stroke:none;stroke-width:0.114229"
       id="path984" /><path
       d="M 936.10182,341.2424 V 301.86886"
       style="fill:none;stroke:#2e8b57;stroke-width:0.909961;stroke-linecap:round;stroke-linejoin:bevel;stroke-miterlimit:6;stroke-dasharray:none;stroke-opacity:1"
       id="path986" /><path
       d="m 941.35178,335.99244 c -3.2818,6.56245 -3.2818,8.53061 -5.24996,18.37485 -1.96931,-9.84424 -1.96931,-11.8124 -5.24996,-18.37485 3.93747,1.31249 6.56245,1.31249 10.49992,0"
       style="fill:#2e8b57;fill-opacity:1;fill-rule:evenodd;stroke:none;stroke-width:0.114229"
       id="path988" /><path
       d="M 998.66151,339.48441 978.97417,305.38596"
       style="fill:none;stroke:#2e8b57;stroke-width:0.909961;stroke-linecap:round;stroke-linejoin:bevel;stroke-miterlimit:6;stroke-dasharray:none;stroke-opacity:1"
       id="path990" /><path
       d="m 1000.5829,332.31199 c 0.4397,7.32435 1.4243,9.02864 4.6411,18.53819 -6.62649,-7.54024 -7.61111,-9.24568 -13.73381,-13.28824 4.06547,-0.83159 6.33971,-2.14407 9.09271,-5.24995"
       style="fill:#2e8b57;fill-opacity:1;fill-rule:evenodd;stroke:none;stroke-width:0.114229"
       id="path992" /><path
       d="M 712.1105,433.11321 V 636.1047 H 894.1033 V 433.11321 Z"
       style="fill:#cbf8f8;fill-opacity:1;fill-rule:evenodd;stroke:none;stroke-width:0.114229"
       id="path994" /><path
       d="M 712.1105,433.11321 V 636.1047 H 894.1033 V 433.11321 Z"
       style="fill:none;stroke:#cbf8f8;stroke-width:1.13745;stroke-linecap:round;stroke-linejoin:bevel;stroke-miterlimit:6;stroke-dasharray:none;stroke-opacity:1"
       id="path996" /><g
       id="g998"
       transform="matrix(0,1.1422883,1.1422883,0,374.49577,3.3272402)"><text
         xml:space="preserve"
         transform="matrix(0,1,1,0,498.806,307.327)"
         style="font-variant:normal;font-weight:bold;font-size:30.639px;font-family:Helvetica;-inkscape-font-specification:Helvetica-Bold;writing-mode:lr-tb;fill:#000000;fill-opacity:1;fill-rule:nonzero;stroke:none"
         id="text1006"><tspan
           x="0 17.035284 34.070568 51.10585 69.826279 86.861565 114.09963"
           y="0"
           sodipodi:role="line"
           id="tspan1000">xschem/</tspan><tspan
           x="-0.58125001 18.139179 36.859608 53.894894 72.615318 81.132965 98.168243 116.88868 133.92397"
           y="-42.894501"
           sodipodi:role="line"
           id="tspan1002">openlane/</tspan><tspan
           x="-1.3449219 25.893148 42.928432 61.648861 70.166504 87.20179"
           y="-85.789001"
           sodipodi:role="line"
           id="tspan1004">magic/</tspan></text></g><path
       d="m 880.54092,451.48007 19.68733,-34.0996"
       style="fill:none;stroke:#2e8b57;stroke-width:0.909961;stroke-linecap:round;stroke-linejoin:bevel;stroke-miterlimit:6;stroke-dasharray:none;stroke-opacity:1"
       id="path1008" /><path
       d="m 887.7122,449.5576 c -6.12152,4.04256 -7.10617,5.74799 -13.73259,13.28824 3.21669,-9.50955 4.2002,-11.21385 4.63997,-18.5382 2.75407,3.10588 5.02722,4.41837 9.09262,5.24996"
       style="fill:#2e8b57;fill-opacity:1;fill-rule:evenodd;stroke:none;stroke-width:0.114229"
       id="path1010" /><path
       d="M 901.10325,433.11321 V 594.10619 H 1216.0904 V 433.11321 Z"
       style="fill:#c7e392;fill-opacity:1;fill-rule:evenodd;stroke:none;stroke-width:0.114229"
       id="path1012" /><path
       d="M 901.10325,433.11321 V 594.10619 H 1216.0904 V 433.11321 Z"
       style="fill:none;stroke:#c7e392;stroke-width:1.13745;stroke-linecap:round;stroke-linejoin:bevel;stroke-miterlimit:6;stroke-dasharray:none;stroke-opacity:1"
       id="path1014" /><g
       id="g1016"
       transform="matrix(0,1.1422883,1.1422883,0,374.49577,3.3272402)"><text
         xml:space="preserve"
         transform="matrix(0,1,1,0,419.145,466.253)"
         style="font-variant:normal;font-weight:bold;font-size:30.639px;font-family:Helvetica;-inkscape-font-specification:Helvetica-Bold;writing-mode:lr-tb;fill:#000000;fill-opacity:1;fill-rule:nonzero;stroke:none"
         id="text1024"><tspan
           x="0 17.035284 34.070568 51.10585 68.141136 85.176422 102.2117 119.24699 129.44977 148.1702 165.20549 182.24077 199.27606 216.31134 235.03177 253.7522"
           y="0"
           sodipodi:role="line"
           id="tspan1018">sky130_fd_sc_hd/</tspan><tspan
           x="0 17.035284 34.070568 51.10585 68.141136 85.176422 102.2117 119.24699 129.44977 148.1702 165.20549 183.92592 195.84448"
           y="79.661301"
           sodipodi:role="line"
           id="tspan1020">sky130_fd_pr/</tspan><tspan
           x="0 17.035284 34.070568 51.10585 68.141136 85.176422 102.2117 119.24699 129.44977 148.1702 165.20549 173.72313 192.44356"
           y="36.7668"
           sodipodi:role="line"
           id="tspan1022">sky130_fd_io/</tspan></text></g><path
       d="M 1034.0976,446.23811 V 406.86457"
       style="fill:none;stroke:#2e8b57;stroke-width:0.909961;stroke-linecap:round;stroke-linejoin:bevel;stroke-miterlimit:6;stroke-dasharray:none;stroke-opacity:1"
       id="path1026" /><path
       d="m 1039.3476,440.98815 c -3.2807,6.56244 -3.2807,8.53061 -5.25,18.37485 -1.9682,-9.84424 -1.9682,-11.81241 -5.25,-18.37485 3.9375,1.31249 6.5625,1.31249 10.5,0"
       style="fill:#2e8b57;fill-opacity:1;fill-rule:evenodd;stroke:none;stroke-width:0.114229"
       id="path1028" /><path
       d="m 1223.0892,384.11476 v 293.98846 h 146.9942 V 384.11476 Z"
       style="fill:#fefe85;fill-opacity:1;fill-rule:evenodd;stroke:none;stroke-width:0.114229"
       id="path1030" /><path
       d="m 1223.0892,384.11476 v 293.98846 h 146.9942 V 384.11476 Z"
       style="fill:none;stroke:#fefe85;stroke-width:1.13745;stroke-linecap:round;stroke-linejoin:bevel;stroke-miterlimit:6;stroke-dasharray:none;stroke-opacity:1"
       id="path1032" /><g
       id="g1034"
       transform="matrix(0,1.1422883,1.1422883,0,374.49577,3.3272402)"><text
         xml:space="preserve"
         transform="matrix(0,1,1,0,370.122,748.131)"
         style="font-variant:normal;font-weight:bold;font-size:30.639px;font-family:Helvetica;-inkscape-font-specification:Helvetica-Bold;writing-mode:lr-tb;fill:#000000;fill-opacity:1;fill-rule:nonzero;stroke:none"
         id="text1048"><tspan
           x="0 17.035284 35.755714 44.273354 61.30864 78.343925"
           y="0"
           sodipodi:role="line"
           id="tspan1036">spice/</tspan><tspan
           x="-0.94804698 26.290024 43.32531 62.045738"
           y="42.894901"
           sodipodi:role="line"
           id="tspan1038">mag/</tspan><tspan
           x="4.9652328 13.482875 22.000517 40.720947"
           y="91.917198"
           sodipodi:role="line"
           id="tspan1040">lib/</tspan><tspan
           x="4.9652328 13.482875 30.51816 40.720947"
           y="128.68401"
           sodipodi:role="line"
           id="tspan1042">lef/</tspan><tspan
           x="6.5855432 23.620827 40.656113 52.57468 61.092323 69.609962 88.330399 107.05083"
           y="208.34531"
           sodipodi:role="line"
           id="tspan1044">verilog/</tspan><tspan
           x="5.9749961 24.695425 43.415855 60.451138"
           y="165.45081"
           sodipodi:role="line"
           id="tspan1046">gds/</tspan></text></g><path
       d="M 1221.7676,534.50615 1183.7362,524.3158"
       style="fill:none;stroke:#2e8b57;stroke-width:0.909961;stroke-linecap:round;stroke-linejoin:bevel;stroke-miterlimit:6;stroke-dasharray:none;stroke-opacity:1"
       id="path1050" /><path
       d="m 1218.0551,528.07621 c 5.4899,4.86843 7.3918,5.3779 16.3895,9.82711 -10.0167,-0.64654 -11.9186,-1.156 -19.107,0.31527 2.2869,-3.46342 2.9665,-5.9993 2.7175,-10.14238"
       style="fill:#2e8b57;fill-opacity:1;fill-rule:evenodd;stroke:none;stroke-width:0.114229"
       id="path1052" /><g
       id="g1054"
       transform="matrix(0,1.1422883,1.1422883,0,374.49577,3.3272402)"><text
         xml:space="preserve"
         transform="matrix(0,1,1,0,541.701,305.891)"
         style="font-variant:normal;font-weight:bold;font-size:30.639px;font-family:Helvetica;-inkscape-font-specification:Helvetica-Bold;writing-mode:lr-tb;fill:#000000;fill-opacity:1;fill-rule:nonzero;stroke:none"
         id="text1058"><tspan
           x="0 18.720428 37.440857 54.476143 73.196571 81.714211 98.749496 115.78478"
           y="0"
           sodipodi:role="line"
           id="tspan1056">ngspice/</tspan></text></g></g></svg>
