<?xml version="1.0" encoding="UTF-8" standalone="no"?>
<!-- Created with Inkscape (http://www.inkscape.org/) -->

<svg
   width="1100"
   height="700"
   viewBox="0 0 1100 700"
   version="1.1"
   id="svg5"
   xml:space="preserve"
   inkscape:version="1.2.1 (9c6d41e410, 2022-07-14, custom)"
   sodipodi:docname="opencircuitdesign.svg"
   xmlns:inkscape="http://www.inkscape.org/namespaces/inkscape"
   xmlns:sodipodi="http://sodipodi.sourceforge.net/DTD/sodipodi-0.dtd"
   xmlns="http://www.w3.org/2000/svg"
   xmlns:svg="http://www.w3.org/2000/svg"><sodipodi:namedview
     id="namedview7"
     pagecolor="#ffffff"
     bordercolor="#666666"
     borderopacity="1.0"
     inkscape:showpageshadow="2"
     inkscape:pageopacity="0.0"
     inkscape:pagecheckerboard="0"
     inkscape:deskcolor="#d1d1d1"
     inkscape:document-units="px"
     showgrid="false"
     inkscape:zoom="0.5096119"
     inkscape:cx="888.91174"
     inkscape:cy="727.02384"
     inkscape:window-width="1920"
     inkscape:window-height="994"
     inkscape:window-x="0"
     inkscape:window-y="31"
     inkscape:window-maximized="1"
     inkscape:current-layer="layer1" /><defs
     id="defs2" /><g
     inkscape:label="Layer 1"
     inkscape:groupmode="layer"
     id="layer1"><g
       id="g349"
       transform="translate(-440)"><g
         id="g1766"
         transform="translate(92.494682,-6)"><g
           id="g1389"
           transform="matrix(0,1.3333333,1.3333333,0,298.82039,-21.759643)"><text
             xml:space="preserve"
             transform="matrix(0,1,1,0,72.641,282.611)"
             style="font-variant:normal;font-weight:bold;font-size:36.7668px;font-family:Helvetica;-inkscape-font-specification:Helvetica-Bold;writing-mode:lr-tb;fill:#000000;fill-opacity:1;fill-rule:nonzero;stroke:none"
             id="text1393"><tspan
               x="0 28.60457 51.069084 71.511429 93.975945 106.21928 130.74274 153.20726 175.67177 189.97406 210.4164 230.85873 241.07991 265.60336 292.14899 318.69461 328.9158 351.38031 373.84482 396.30933 406.53052"
               y="0"
               sodipodi:role="line"
               id="tspan1391">Open-Source EDA Tools</tspan></text></g><g
           id="g1395"
           transform="matrix(0,1.3333333,1.3333333,0,298.82039,-21.759643)"><text
             xml:space="preserve"
             transform="matrix(0,1,1,0,223.055,115.805)"
             style="font-variant:normal;font-weight:bold;font-size:30.639px;font-family:Helvetica;-inkscape-font-specification:Helvetica-Bold;writing-mode:lr-tb;fill:#a52a2a;fill-opacity:1;fill-rule:nonzero;stroke:none"
             id="text1399"><tspan
               x="0 18.720428 28.923216 39.126003 57.846432 74.881714 85.084503 93.602142 102.11979 120.84022 129.35786 139.56064 158.28107 177.00151 195.72194 204.23958 221.27486 239.99529 267.23337 275.75101 297.87234 316.59277 325.11044 352.34851 371.06894 381.27173 399.99216 417.02744 437.46365 456.18408 480.02121 497.05649 508.97507 527.6955 544.73077 553.24841 571.96887 590.68927 607.72455 626.44501 643.48029 662.20068 680.92114 697.95642"
               y="0"
               sodipodi:role="line"
               id="tspan1397">https://github.com/RTimothyEdwards/open_pdks</tspan></text></g><path
           d="m 390.59585,112.23902 v 73.53386 h 261.452 v -73.53386 z"
           style="fill:#ffffff;fill-opacity:1;fill-rule:evenodd;stroke:none;stroke-width:0.133333"
           id="path1401" /><path
           d="m 390.59585,112.23902 v 73.53386 h 261.452 v -73.53386 z"
           style="fill:none;stroke:#ffffff;stroke-width:1.32769;stroke-linecap:round;stroke-linejoin:bevel;stroke-miterlimit:6;stroke-dasharray:none;stroke-opacity:1"
           id="path1403" /><g
           id="g1405"
           transform="matrix(0,1.3333333,1.3333333,0,298.82039,-21.759643)"><text
             xml:space="preserve"
             transform="matrix(0,1,1,0,137.266,86.1445)"
             style="font-variant:normal;font-weight:bold;font-size:30.639px;font-family:Helvetica;-inkscape-font-specification:Helvetica-Bold;writing-mode:lr-tb;fill:#000000;fill-opacity:1;fill-rule:nonzero;stroke:none"
             id="text1409"><tspan
               x="0 18.720428 37.440857 54.476143 73.196571 90.231857 108.95229 127.67271 144.70799"
               y="0"
               sodipodi:role="line"
               id="tspan1407">open_pdks</tspan></text></g><path
           d="m 390.59585,112.23902 v 73.53386 h 261.452 v -73.53386 z"
           style="fill:none;stroke:#000000;stroke-width:1.32769;stroke-linecap:round;stroke-linejoin:bevel;stroke-miterlimit:6;stroke-dasharray:none;stroke-opacity:1"
           id="path1411" /><g
           id="g1413"
           transform="matrix(0,1.3333333,1.3333333,0,298.82039,-21.759643)"><text
             xml:space="preserve"
             transform="matrix(0,1,1,0,186.288,115.805)"
             style="font-variant:normal;font-weight:bold;font-size:30.639px;font-family:Helvetica;-inkscape-font-specification:Helvetica-Bold;writing-mode:lr-tb;fill:#a52a2a;fill-opacity:1;fill-rule:nonzero;stroke:none"
             id="text1417"><tspan
               x="0 18.720428 28.923216 39.126003 57.846432 68.049217 76.566864 85.084503 103.80493 122.52536 139.56064 158.28107 175.31636 183.834 195.75256 212.78786 231.50829 240.02592 250.22871 268.94913 285.98444 303.01971 311.53735 330.25778 348.97821 357.49585 374.53113 393.25156 420.48962 429.00726 447.72772 466.44815 483.48343 502.20386 519.23914 537.95953 556.67999 573.71527"
               y="0"
               sodipodi:role="line"
               id="tspan1415">http://opencircuitdesign.com/open_pdks</tspan></text></g><path
           d="m 619.36705,308.32835 v 89.87453 h 596.44005 v -89.87453 z"
           style="fill:#c7e392;fill-opacity:1;fill-rule:evenodd;stroke:none;stroke-width:0.133333"
           id="path1419" /><path
           d="m 619.36705,308.32835 v 89.87453 h 596.44005 v -89.87453 z"
           style="fill:none;stroke:#c7e392;stroke-width:1.32769;stroke-linecap:round;stroke-linejoin:bevel;stroke-miterlimit:6;stroke-dasharray:none;stroke-opacity:1"
           id="path1421" /><path
           d="m 1085.0804,463.56701 c 0,-31.58666 -69.5027,-57.19333 -155.23869,-57.19333 -85.73467,0 -155.23733,25.60667 -155.23733,57.19333 0,31.58533 69.50266,57.192 155.23733,57.192 85.73599,0 155.23869,-25.60667 155.23869,-57.192"
           style="fill:#cbf8f8;fill-opacity:1;fill-rule:evenodd;stroke:none;stroke-width:0.133333"
           id="path1423" /><path
           d="m 1085.0804,463.56701 c 0,-31.58666 -69.5027,-57.19333 -155.23869,-57.19333 -85.73467,0 -155.23733,25.60667 -155.23733,57.19333 0,31.58533 69.50266,57.192 155.23733,57.192 85.73599,0 155.23869,-25.60667 155.23869,-57.192"
           style="fill:none;stroke:#cbf8f8;stroke-width:1.32769;stroke-linecap:round;stroke-linejoin:bevel;stroke-miterlimit:6;stroke-dasharray:none;stroke-opacity:1"
           id="path1425" /><path
           d="m 1183.1244,602.46301 h 40.852 c 13.2773,0 24.5107,-11.23467 24.5107,-24.51067 0,-13.27733 -11.2334,-24.512 -24.5107,-24.512 h -40.852 c -13.2773,0 -24.5107,11.23467 -24.5107,24.512 0,13.276 11.2334,24.51067 24.5107,24.51067"
           style="fill:#ffffff;fill-opacity:1;fill-rule:evenodd;stroke:none;stroke-width:0.133333"
           id="path1427" /><path
           d="m 1183.1244,602.46301 h 40.852 c 13.2773,0 24.5107,-11.23467 24.5107,-24.51067 0,-13.27733 -11.2334,-24.512 -24.5107,-24.512 h -40.852 c -13.2773,0 -24.5107,11.23467 -24.5107,24.512 0,13.276 11.2334,24.51067 24.5107,24.51067"
           style="fill:none;stroke:#ffffff;stroke-width:1.32769;stroke-linecap:round;stroke-linejoin:bevel;stroke-miterlimit:6;stroke-dasharray:none;stroke-opacity:1"
           id="path1429" /><path
           d="m 880.82038,602.46301 h 187.91872 c 13.276,0 24.5106,-11.23467 24.5106,-24.51067 0,-13.27733 -11.2346,-24.512 -24.5106,-24.512 H 880.82038 c -13.27734,0 -24.512,11.23467 -24.512,24.512 0,13.276 11.23466,24.51067 24.512,24.51067"
           style="fill:#ffffff;fill-opacity:1;fill-rule:evenodd;stroke:none;stroke-width:0.133333"
           id="path1431" /><path
           d="m 880.82038,602.46301 h 187.91872 c 13.276,0 24.5106,-11.23467 24.5106,-24.51067 0,-13.27733 -11.2346,-24.512 -24.5106,-24.512 H 880.82038 c -13.27734,0 -24.512,11.23467 -24.512,24.512 0,13.276 11.23466,24.51067 24.512,24.51067"
           style="fill:none;stroke:#ffffff;stroke-width:1.32769;stroke-linecap:round;stroke-linejoin:bevel;stroke-miterlimit:6;stroke-dasharray:none;stroke-opacity:1"
           id="path1433" /><path
           d="m 619.36705,545.27101 c -13.27733,0 -24.51067,11.23333 -24.51067,24.51066 0,13.27734 11.23334,24.51067 24.51067,24.51067 h 122.556 c 13.27733,0 24.51066,-11.23333 24.51066,-24.51067 0,-13.27733 -11.23333,-24.51066 -24.51066,-24.51066 h -122.556"
           style="fill:#ffffff;fill-opacity:1;fill-rule:evenodd;stroke:none;stroke-width:0.133333"
           id="path1435" /><path
           d="m 619.36705,545.27101 c -13.27733,0 -24.51067,11.23333 -24.51067,24.51066 0,13.27734 11.23334,24.51067 24.51067,24.51067 h 122.556 c 13.27733,0 24.51066,-11.23333 24.51066,-24.51067 0,-13.27733 -11.23333,-24.51066 -24.51066,-24.51066 h -122.556"
           style="fill:none;stroke:#ffffff;stroke-width:1.32769;stroke-linecap:round;stroke-linejoin:bevel;stroke-miterlimit:6;stroke-dasharray:none;stroke-opacity:1"
           id="path1437" /><path
           d="m 709.24171,684.16701 h 187.91867 c 13.27733,0 24.51199,-11.23334 24.51199,-24.51067 0,-13.27733 -11.23466,-24.51067 -24.51199,-24.51067 H 709.24171 c -13.27733,0 -24.512,11.23334 -24.512,24.51067 0,13.27733 11.23467,24.51067 24.512,24.51067"
           style="fill:#ffffff;fill-opacity:1;fill-rule:evenodd;stroke:none;stroke-width:0.133333"
           id="path1439" /><path
           d="m 709.24171,684.16701 h 187.91867 c 13.27733,0 24.51199,-11.23334 24.51199,-24.51067 0,-13.27733 -11.23466,-24.51067 -24.51199,-24.51067 H 709.24171 c -13.27733,0 -24.512,11.23334 -24.512,24.51067 0,13.27733 11.23467,24.51067 24.512,24.51067"
           style="fill:none;stroke:#ffffff;stroke-width:1.32769;stroke-linecap:round;stroke-linejoin:bevel;stroke-miterlimit:6;stroke-dasharray:none;stroke-opacity:1"
           id="path1441" /><path
           d="m 1019.7164,684.16701 h 187.92 c 13.276,0 24.5107,-11.23334 24.5107,-24.51067 0,-13.27733 -11.2347,-24.51067 -24.5107,-24.51067 h -187.92 c -13.2773,0 -24.51074,11.23334 -24.51074,24.51067 0,13.27733 11.23344,24.51067 24.51074,24.51067"
           style="fill:#ffffff;fill-opacity:1;fill-rule:evenodd;stroke:none;stroke-width:0.133333"
           id="path1443" /><path
           d="m 1019.7164,684.16701 h 187.92 c 13.276,0 24.5107,-11.23334 24.5107,-24.51067 0,-13.27733 -11.2347,-24.51067 -24.5107,-24.51067 h -187.92 c -13.2773,0 -24.51074,11.23334 -24.51074,24.51067 0,13.27733 11.23344,24.51067 24.51074,24.51067"
           style="fill:none;stroke:#ffffff;stroke-width:1.32769;stroke-linecap:round;stroke-linejoin:bevel;stroke-miterlimit:6;stroke-dasharray:none;stroke-opacity:1"
           id="path1445" /><g
           id="g1447"
           transform="matrix(0,1.3333333,1.3333333,0,298.82039,-21.759643)"><text
             xml:space="preserve"
             transform="matrix(0,1,1,0,449.784,244.704)"
             style="font-variant:normal;font-weight:bold;font-size:30.639px;font-family:Helvetica;-inkscape-font-specification:Helvetica-Bold;writing-mode:lr-tb;fill:#000000;fill-opacity:1;fill-rule:nonzero;stroke:none"
             id="text1463"><tspan
               x="0 27.238071 44.273354 62.993786 71.511429"
               y="0"
               sodipodi:role="line"
               id="tspan1449">magic</tspan><tspan
               x="196.854 215.57443 234.29486 251.33014 270.05057 278.56821 295.60349 314.32391"
               y="6.1277299"
               sodipodi:role="line"
               id="tspan1451">openlane</tspan><tspan
               x="416.569 425.08664 433.60428"
               y="0"
               sodipodi:role="line"
               id="tspan1453">...</tspan><tspan
               x="313.86401 330.89929 347.93457 364.96985 383.69028 400.72556 73.444 92.164429 110.88486 127.92014 146.64056 155.15822 172.1935"
               y="67.405899"
               sodipodi:role="line"
               id="tspan1455">xschemngspice</tspan><tspan
               x="6.9565001 30.793642 49.514072 66.549355 85.269783 95.472572 112.50786 131.22829 149.94872 161.86728 178.90257 195.93785 204.45549 224.89171 247.01306 269.13443 277.65207 289.57065 306.60593 325.32635 344.04678 361.08206 369.5997 379.80249 398.52292 410.4415"
               y="-160.2541"
               sodipodi:role="line"
               id="tspan1457">Open-source PDK repository</tspan><tspan
               x="153.96049 172.68092 191.40135 208.43665 227.15707 244.19235 262.91278 281.63321 298.66849"
               y="-91.917"
               sodipodi:role="line"
               id="tspan1459">open_pdks</tspan><tspan
               x="153.96049 179.48279 196.51807 213.55336 230.58864 240.79143 249.30907 257.82672"
               y="-61.277901"
               sodipodi:role="line"
               id="tspan1461">Makefile</tspan></text></g><path
           d="m 929.84171,414.54435 v -40.852"
           style="fill:none;stroke:#000000;stroke-width:1.32769;stroke-linecap:round;stroke-linejoin:bevel;stroke-miterlimit:6;stroke-dasharray:none;stroke-opacity:1"
           id="path1465" /><path
           d="m 938.01237,394.11768 c -5.10666,10.21333 -5.10666,13.27733 -8.17066,28.596 -3.064,-15.31867 -3.064,-18.38267 -8.16934,-28.596 6.12667,2.04267 10.212,2.04267 16.34,0"
           style="fill:#000000;fill-opacity:1;fill-rule:evenodd;stroke:none;stroke-width:0.133333"
           id="path1467" /><path
           d="m 750.09371,553.44034 65.36267,-49.02133"
           style="fill:none;stroke:#000000;stroke-width:1.32769;stroke-linecap:round;stroke-linejoin:bevel;stroke-miterlimit:6;stroke-dasharray:none;stroke-opacity:1"
           id="path1469" /><path
           d="M 807.28571,635.14567 856.30838,512.58834"
           style="fill:none;stroke:#000000;stroke-width:1.32769;stroke-linecap:round;stroke-linejoin:bevel;stroke-miterlimit:6;stroke-dasharray:none;stroke-opacity:1"
           id="path1471" /><path
           d="m 938.01237,553.44034 v -40.852"
           style="fill:none;stroke:#000000;stroke-width:1.32769;stroke-linecap:round;stroke-linejoin:bevel;stroke-miterlimit:6;stroke-dasharray:none;stroke-opacity:1"
           id="path1473" /><path
           d="M 1142.2724,635.14567 1052.3977,496.24834"
           style="fill:none;stroke:#000000;stroke-width:1.32769;stroke-linecap:round;stroke-linejoin:bevel;stroke-miterlimit:6;stroke-dasharray:none;stroke-opacity:1"
           id="path1475" /><path
           d="m 1174.9537,553.44034 -98.044,-73.53333"
           style="fill:none;stroke:#000000;stroke-width:1.32769;stroke-linecap:round;stroke-linejoin:bevel;stroke-miterlimit:6;stroke-dasharray:none;stroke-opacity:1"
           id="path1477" /><path
           d="m 777.87238,542.81901 c -11.23334,2.04267 -13.68533,3.88133 -27.77867,10.62133 10.41734,-11.64266 12.868,-13.48133 17.97467,-23.69333 2.04266,6.128 4.49333,9.396 9.804,13.072"
           style="fill:#000000;fill-opacity:1;fill-rule:evenodd;stroke:none;stroke-width:0.133333"
           id="path1479" /><path
           d="m 825.49238,611.62834 c -8.53334,7.58533 -9.672,10.43067 -18.20667,23.51733 2.84533,-15.36266 3.98267,-18.208 3.03467,-29.58666 4.93066,4.172 8.724,5.68933 15.172,6.06933"
           style="fill:#000000;fill-opacity:1;fill-rule:evenodd;stroke:none;stroke-width:0.133333"
           id="path1481" /><path
           d="m 946.18304,524.84434 c -5.10667,10.21334 -5.10667,13.27734 -8.17067,28.596 -3.064,-15.31866 -3.064,-18.38266 -8.17066,-28.596 6.128,2.04267 10.21333,2.04267 16.34133,0"
           style="fill:#000000;fill-opacity:1;fill-rule:evenodd;stroke:none;stroke-width:0.133333"
           id="path1483" /><path
           d="m 1133.5977,606.69767 c 1.2614,11.348 2.9254,13.92134 8.6747,28.448 -10.8947,-11.19866 -12.5587,-13.77066 -22.3947,-19.57066 6.2547,-1.61467 9.684,-3.83334 13.72,-8.87734"
           style="fill:#000000;fill-opacity:1;fill-rule:evenodd;stroke:none;stroke-width:0.133333"
           id="path1485" /><path
           d="m 1156.9791,529.74701 c 5.1066,10.212 7.5586,12.05067 17.9746,23.69333 -14.0933,-6.74 -16.5453,-8.57866 -27.7786,-10.62133 5.3106,-3.676 7.7613,-6.944 9.804,-13.072"
           style="fill:#000000;fill-opacity:1;fill-rule:evenodd;stroke:none;stroke-width:0.133333"
           id="path1487" /></g></g></g></svg>
