<?xml version="1.0" encoding="UTF-8" standalone="no"?>
<!-- Created with Inkscape (http://www.inkscape.org/) -->

<svg
   width="1300"
   height="700"
   viewBox="0 0 1300 700"
   version="1.1"
   id="svg5"
   xml:space="preserve"
   inkscape:version="1.2.1 (9c6d41e410, 2022-07-14, custom)"
   sodipodi:docname="opencircuitdesign1.svg"
   xmlns:inkscape="http://www.inkscape.org/namespaces/inkscape"
   xmlns:sodipodi="http://sodipodi.sourceforge.net/DTD/sodipodi-0.dtd"
   xmlns="http://www.w3.org/2000/svg"
   xmlns:svg="http://www.w3.org/2000/svg"><sodipodi:namedview
     id="namedview7"
     pagecolor="#ffffff"
     bordercolor="#666666"
     borderopacity="1.0"
     inkscape:showpageshadow="2"
     inkscape:pageopacity="0.0"
     inkscape:pagecheckerboard="0"
     inkscape:deskcolor="#d1d1d1"
     inkscape:document-units="px"
     showgrid="false"
     inkscape:zoom="0.5096119"
     inkscape:cx="888.91174"
     inkscape:cy="727.02384"
     inkscape:window-width="1920"
     inkscape:window-height="994"
     inkscape:window-x="0"
     inkscape:window-y="31"
     inkscape:window-maximized="1"
     inkscape:current-layer="layer1" /><defs
     id="defs2" /><g
     inkscape:label="Layer 1"
     inkscape:groupmode="layer"
     id="layer1"><g
       id="g640"
       transform="translate(-340)"><g
         id="g2232"
         transform="translate(54.987789,-6)"><g
           id="g1924"
           transform="matrix(0,1.3333333,1.3333333,0,295.11887,-23.322456)"><text
             xml:space="preserve"
             transform="matrix(0,1,1,0,72.641,282.611)"
             style="font-variant:normal;font-weight:bold;font-size:36.7668px;font-family:Helvetica;-inkscape-font-specification:Helvetica-Bold;writing-mode:lr-tb;fill:#000000;fill-opacity:1;fill-rule:nonzero;stroke:none"
             id="text1928"><tspan
               x="0 28.60457 51.069084 71.511429 93.975945 106.21928 130.74274 153.20726 175.67177 189.97406 210.4164 230.85873 241.07991 265.60336 292.14899 318.69461 328.9158 351.38031 373.84482 396.30933 406.53052"
               y="0"
               sodipodi:role="line"
               id="tspan1926">Open-Source EDA Tools</tspan></text></g><path
           d="m 386.89433,110.67621 v 73.53386 h 261.452 v -73.53386 z"
           style="fill:#ffffff;fill-opacity:1;fill-rule:evenodd;stroke:none;stroke-width:0.133333"
           id="path1930" /><path
           d="m 386.89433,110.67621 v 73.53386 h 261.452 v -73.53386 z"
           style="fill:none;stroke:#ffffff;stroke-width:1.32769;stroke-linecap:round;stroke-linejoin:bevel;stroke-miterlimit:6;stroke-dasharray:none;stroke-opacity:1"
           id="path1932" /><g
           id="g1934"
           transform="matrix(0,1.3333333,1.3333333,0,295.11887,-23.322456)"><text
             xml:space="preserve"
             transform="matrix(0,1,1,0,137.266,86.1445)"
             style="font-variant:normal;font-weight:bold;font-size:30.639px;font-family:Helvetica;-inkscape-font-specification:Helvetica-Bold;writing-mode:lr-tb;fill:#000000;fill-opacity:1;fill-rule:nonzero;stroke:none"
             id="text1938"><tspan
               x="0 18.720428 37.440857 54.476143 73.196571 90.231857 108.95229 127.67271 144.70799"
               y="0"
               sodipodi:role="line"
               id="tspan1936">open_pdks</tspan></text></g><path
           d="m 386.89433,110.67621 v 73.53386 h 261.452 v -73.53386 z"
           style="fill:none;stroke:#000000;stroke-width:1.32769;stroke-linecap:round;stroke-linejoin:bevel;stroke-miterlimit:6;stroke-dasharray:none;stroke-opacity:1"
           id="path1940" /><g
           id="g1942"
           transform="matrix(0,1.3333333,1.3333333,0,295.11887,-23.322456)"><text
             xml:space="preserve"
             transform="matrix(0,1,1,0,149.521,306.838)"
             style="font-variant:normal;font-weight:bold;font-size:30.639px;font-family:Helvetica;-inkscape-font-specification:Helvetica-Bold;writing-mode:lr-tb;fill:#0000ff;fill-opacity:1;fill-rule:nonzero;stroke:none"
             id="text1946"><tspan
               x="0 20.436213 30.639 47.674286 66.394714 83.43 91.947639 102.15043 120.87086 129.3885 137.90614 156.62657 173.66185 183.86464 200.89992 209.41757 217.93521 226.45285 245.17328 263.89371 272.41135 282.61414 301.33456 318.36984 326.88748 347.3237 369.44507 389.88129 406.91656 423.95184 440.98712 449.50476 469.94098 492.06235"
               y="0"
               sodipodi:role="line"
               id="tspan1944">Steps to installing the SKY130 PDK</tspan></text></g><g
           id="g1948"
           transform="matrix(0,1.3333333,1.3333333,0,295.11887,-23.322456)"><text
             xml:space="preserve"
             transform="matrix(0,1,1,0,192.416,11.6031)"
             style="font-variant:normal;font-weight:bold;font-size:30.639px;font-family:Helvetica;-inkscape-font-specification:Helvetica-Bold;writing-mode:lr-tb;fill:#000000;fill-opacity:1;fill-rule:nonzero;stroke:none"
             id="text1954"><tspan
               x="0 17.035284 25.552925 34.070568 56.191925 64.709564 83.43 102.15043 119.18571 127.70335 137.90614 156.62657 173.66185 182.17949 194.09807 211.13335 229.85378 248.5742 265.6095 274.12714 284.32993 303.05035 314.96893"
               y="0"
               sodipodi:role="line"
               id="tspan1950">1. Clone the repository</tspan><tspan
               x="0 59.623493"
               y="30.6387"
               sodipodi:role="line"
               id="tspan1952"> &quot;</tspan></text></g><g
           id="g1956"
           transform="matrix(0,1.3333333,1.3333333,0,295.11887,-23.322456)"><text
             xml:space="preserve"
             transform="matrix(0,1,1,0,223.055,85.7496)"
             style="font-variant:normal;font-weight:bold;font-size:30.639px;font-family:Helvetica;-inkscape-font-specification:Helvetica-Bold;writing-mode:lr-tb;fill:#a52a2a;fill-opacity:1;fill-rule:nonzero;stroke:none"
             id="text1960"><tspan
               x="0 18.720428 27.238071 37.440857 45.9585 62.993786 71.511429 90.231857 108.95229 125.98757 134.5052 153.22563 163.42842 173.63121 192.35164 209.38693 219.58971 228.10736 236.625 255.34543 263.86307 274.06586 292.78629 311.50671 330.22714 338.74478 355.78006 374.50049 401.73856 410.2562 432.37756 451.09799 459.61563 486.8537 505.57413 515.77692 534.49738 551.53265 571.96887 590.68927 614.52643 631.56171 643.48029 662.20068 679.23596 687.75366 706.47406 725.19452 742.2298 760.9502 777.98547 796.70593 815.42633 832.46161"
               y="0"
               sodipodi:role="line"
               id="tspan1958">git clone https://github.com/RTimothyEdwards/open_pdks</tspan></text></g><g
           id="g1962"
           transform="matrix(0,1.3333333,1.3333333,0,295.11887,-23.322456)"><text
             xml:space="preserve"
             transform="matrix(0,1,1,0,223.055,935.246)"
             style="font-variant:normal;font-weight:bold;font-size:30.639px;font-family:Helvetica;-inkscape-font-specification:Helvetica-Bold;writing-mode:lr-tb;fill:#000000;fill-opacity:1;fill-rule:nonzero;stroke:none"
             id="text1968"><tspan
               x="0"
               y="0"
               id="tspan1964">&quot;</tspan><tspan
               x="-922.45099 -905.41571 -896.89807 -888.38043 -866.25909 -847.53864 -828.81824 -820.3006"
               y="140.939"
               sodipodi:role="line"
               id="tspan1966">3. Run &quot;</tspan></text></g><g
           id="g1970"
           transform="matrix(0,1.3333333,1.3333333,0,295.11887,-23.322456)"><text
             xml:space="preserve"
             transform="matrix(0,1,1,0,363.995,129.469)"
             style="font-variant:normal;font-weight:bold;font-size:30.639px;font-family:Helvetica;-inkscape-font-specification:Helvetica-Bold;writing-mode:lr-tb;fill:#a52a2a;fill-opacity:1;fill-rule:nonzero;stroke:none"
             id="text1974"><tspan
               x="0 17.035284 35.755714 54.476143 64.678932 73.196571 91.917 110.63743 122.556 139.59128 148.10893 158.31171 168.5145 185.54979 204.27022 221.3055 240.02592 248.54356 265.57886 275.78165 292.81693 309.8522 326.88748 343.92276 360.95807 377.99335 388.19614 406.91656 425.63699"
               y="0"
               sodipodi:role="line"
               id="tspan1972">configure --enable-sky130-pdk</tspan></text></g><g
           id="g1976"
           transform="matrix(0,1.3333333,1.3333333,0,295.11887,-23.322456)"><text
             xml:space="preserve"
             transform="matrix(0,1,1,0,363.995,572.141)"
             style="font-variant:normal;font-weight:bold;font-size:30.639px;font-family:Helvetica;-inkscape-font-specification:Helvetica-Bold;writing-mode:lr-tb;fill:#000000;fill-opacity:1;fill-rule:nonzero;stroke:none"
             id="text1982"><tspan
               x="0"
               y="0"
               id="tspan1978">&quot;</tspan><tspan
               x="-559.19202 -542.15674 -533.6391 -525.12146 -503.00006 -484.27963 -465.5592 -457.04156"
               y="79.661697"
               sodipodi:role="line"
               id="tspan1980">4. Run &quot;</tspan></text></g><g
           id="g1984"
           transform="matrix(0,1.3333333,1.3333333,0,295.11887,-23.322456)"><text
             xml:space="preserve"
             transform="matrix(0,1,1,0,443.656,129.622)"
             style="font-variant:normal;font-weight:bold;font-size:30.639px;font-family:Helvetica;-inkscape-font-specification:Helvetica-Bold;writing-mode:lr-tb;fill:#a52a2a;fill-opacity:1;fill-rule:nonzero;stroke:none"
             id="text1988"><tspan
               x="0 27.238071 44.273354 61.30864"
               y="0"
               sodipodi:role="line"
               id="tspan1986">make</tspan></text></g><g
           id="g1990"
           transform="matrix(0,1.3333333,1.3333333,0,295.11887,-23.322456)"><text
             xml:space="preserve"
             transform="matrix(0,1,1,0,443.656,207.966)"
             style="font-variant:normal;font-weight:bold;font-size:30.639px;font-family:Helvetica;-inkscape-font-specification:Helvetica-Bold;writing-mode:lr-tb;fill:#000000;fill-opacity:1;fill-rule:nonzero;stroke:none"
             id="text1996"><tspan
               x="0"
               y="0"
               id="tspan1992">&quot;</tspan><tspan
               x="-195.10899 -178.07372 -169.55608 -161.03844 -138.91707 -120.19665 -101.47622 -92.958572"
               y="73.5336"
               sodipodi:role="line"
               id="tspan1994">5. Run &quot;</tspan></text></g><g
           id="g1998"
           transform="matrix(0,1.3333333,1.3333333,0,295.11887,-23.322456)"><text
             xml:space="preserve"
             transform="matrix(0,1,1,0,517.19,129.53)"
             style="font-variant:normal;font-weight:bold;font-size:30.639px;font-family:Helvetica;-inkscape-font-specification:Helvetica-Bold;writing-mode:lr-tb;fill:#a52a2a;fill-opacity:1;fill-rule:nonzero;stroke:none"
             id="text2002"><tspan
               x="0 17.035284 35.755714 54.476143 73.196571 81.714211 108.95229 125.98757 143.02286 160.05814 168.57578 177.09341 195.81384 212.84914 223.05193 240.0872 248.60484"
               y="0"
               sodipodi:role="line"
               id="tspan2000">sudo make install</tspan></text></g><g
           id="g2004"
           transform="matrix(0,1.3333333,1.3333333,0,295.11887,-23.322456)"><text
             xml:space="preserve"
             transform="matrix(0,1,1,0,517.19,386.653)"
             style="font-variant:normal;font-weight:bold;font-size:30.639px;font-family:Helvetica;-inkscape-font-specification:Helvetica-Bold;writing-mode:lr-tb;fill:#000000;fill-opacity:1;fill-rule:nonzero;stroke:none"
             id="text2010"><tspan
               x="0"
               y="0"
               id="tspan2006">&quot;</tspan><tspan
               x="-373.88901 -356.85373 -348.33606 -339.81842 -317.69708 -298.97665 -280.25623 -271.73859"
               y="-226.729"
               sodipodi:role="line"
               id="tspan2008">2. Run &quot;</tspan></text></g><g
           id="g2012"
           transform="matrix(0,1.3333333,1.3333333,0,295.11887,-23.322456)"><text
             xml:space="preserve"
             transform="matrix(0,1,1,0,290.461,129.438)"
             style="font-variant:normal;font-weight:bold;font-size:30.639px;font-family:Helvetica;-inkscape-font-specification:Helvetica-Bold;writing-mode:lr-tb;fill:#a52a2a;fill-opacity:1;fill-rule:nonzero;stroke:none"
             id="text2016"><tspan
               x="0 17.035284 35.755714 44.273354 62.993786 81.714211 98.749496 117.46992 134.5052 153.22563 171.94608 188.98135"
               y="0"
               sodipodi:role="line"
               id="tspan2014">cd open_pdks</tspan></text></g><g
           id="g2018"
           transform="matrix(0,1.3333333,1.3333333,0,295.11887,-23.322456)"><text
             xml:space="preserve"
             transform="matrix(0,1,1,0,290.461,335.454)"
             style="font-variant:normal;font-weight:bold;font-size:30.639px;font-family:Helvetica;-inkscape-font-specification:Helvetica-Bold;writing-mode:lr-tb;fill:#000000;fill-opacity:1;fill-rule:nonzero;stroke:none"
             id="text2022"><tspan
               x="0"
               y="0"
               id="tspan2020">&quot;</tspan></text></g></g></g></g></svg>
