<?xml version="1.0" encoding="UTF-8" standalone="no"?>
<!-- Created with Inkscape (http://www.inkscape.org/) -->

<svg
   width="1200"
   height="700"
   viewBox="0 0 1200 700"
   version="1.1"
   id="svg5"
   xml:space="preserve"
   inkscape:version="1.2.1 (9c6d41e410, 2022-07-14, custom)"
   sodipodi:docname="opencircuitdesign8.svg"
   xmlns:inkscape="http://www.inkscape.org/namespaces/inkscape"
   xmlns:sodipodi="http://sodipodi.sourceforge.net/DTD/sodipodi-0.dtd"
   xmlns="http://www.w3.org/2000/svg"
   xmlns:svg="http://www.w3.org/2000/svg"><sodipodi:namedview
     id="namedview7"
     pagecolor="#ffffff"
     bordercolor="#666666"
     borderopacity="1.0"
     inkscape:showpageshadow="2"
     inkscape:pageopacity="0.0"
     inkscape:pagecheckerboard="0"
     inkscape:deskcolor="#d1d1d1"
     inkscape:document-units="px"
     showgrid="false"
     inkscape:zoom="0.5096119"
     inkscape:cx="886.94946"
     inkscape:cy="599.4758"
     inkscape:window-width="1920"
     inkscape:window-height="994"
     inkscape:window-x="0"
     inkscape:window-y="31"
     inkscape:window-maximized="1"
     inkscape:current-layer="layer1" /><defs
     id="defs2" /><g
     inkscape:label="Layer 1"
     inkscape:groupmode="layer"
     id="layer1"><g
       id="g1747"
       transform="translate(-385.71713)"><g
         id="g615"
         transform="matrix(0,1.3333333,1.3333333,0,318.12563,-33.62255)"><text
           xml:space="preserve"
           transform="matrix(0,1,1,0,72.641,282.611)"
           style="font-variant:normal;font-weight:bold;font-size:36.7668px;font-family:Helvetica;-inkscape-font-specification:Helvetica-Bold;writing-mode:lr-tb;fill:#000000;fill-opacity:1;fill-rule:nonzero;stroke:none"
           id="text619"><tspan
             x="0 28.60457 51.069084 71.511429 93.975945 106.21928 130.74274 153.20726 175.67177 189.97406 210.4164 230.85873 241.07991 265.60336 292.14899 318.69461 328.9158 351.38031 373.84482 396.30933 406.53052"
             y="0"
             sodipodi:role="line"
             id="tspan617">Open-Source EDA Tools</tspan></text></g><g
         id="g621"
         transform="matrix(0,1.3333333,1.3333333,0,318.12563,-33.62255)"><text
           xml:space="preserve"
           transform="matrix(0,1,1,0,110.892,298.751)"
           style="font-variant:normal;font-weight:bold;font-size:30.639px;font-family:Helvetica;-inkscape-font-specification:Helvetica-Bold;writing-mode:lr-tb;fill:#a52a2a;fill-opacity:1;fill-rule:nonzero;stroke:none"
           id="text625"><tspan
             x="0 20.436213 37.471497 54.506783 83.43 100.46528 110.66807 127.70335 139.62192 148.13957 168.57578 190.69714 211.13335 228.16864 245.20392 262.2392 270.75684 289.47726 297.9949 316.71533 328.63391 345.66919 357.58777 366.10541 383.14069"
             y="0"
             sodipodi:role="line"
             id="tspan623">SkyWater SKY130 Libraries</tspan></text></g><g
         id="g627"
         transform="matrix(0,1.3333333,1.3333333,0,318.12563,-33.62255)"><text
           xml:space="preserve"
           transform="matrix(0,1,1,0,143.394,72.8813)"
           style="font-variant:normal;font-weight:bold;font-size:30.639px;font-family:Helvetica;-inkscape-font-specification:Helvetica-Bold;writing-mode:lr-tb;fill:#000000;fill-opacity:1;fill-rule:nonzero;stroke:none"
           id="text633"><tspan
             x="0 17.035284 25.552925 34.070568 56.191925 64.709564 83.43 91.947639 102.15043 119.18571 127.70335 136.22099 153.25627 163.45906 180.49435 199.21478 217.93521 234.97049 246.88907 265.6095 274.12714 291.16241 308.19769 316.71533 325.23297"
             y="0"
             sodipodi:role="line"
             id="tspan629">1. Digital standard cells</tspan><tspan
             x="0"
             y="30.639099"
             id="tspan631"> </tspan></text></g><g
         id="g635"
         transform="matrix(0,1.3333333,1.3333333,0,318.12563,-33.62255)"><text
           xml:space="preserve"
           transform="matrix(0,1,1,0,174.033,106.952)"
           style="font-variant:normal;font-weight:bold;font-size:30.639px;font-family:Helvetica;-inkscape-font-specification:Helvetica-Bold;writing-mode:lr-tb;fill:#2e8b57;fill-opacity:1;fill-rule:nonzero;stroke:none"
           id="text643"><tspan
             x="0 17.035284 34.070568 51.10585 68.141136 85.176422 102.2117 119.24699 129.44977 148.1702 165.20549 182.24077 199.27606 216.31134 235.03177 253.7522 287.82275 304.85806 321.89334 338.92862 355.9639 372.99918 390.03448 407.06976 417.27255 435.99298 453.02826 470.06354 487.09882 504.13409 522.85455 541.57495 550.09259"
             y="0"
             sodipodi:role="line"
             id="tspan637">sky130_fd_sc_hd sky130_fd_sc_hdll</tspan><tspan
             x="-34.070702 -0.000132 17.035152 34.070435 51.105721 68.141006 85.176285 102.21157 119.24686 129.44965 148.17007 165.20535 182.24065 199.27592 216.3112 235.03163 252.06693 286.13748 303.17276 320.20807 337.24335 354.27863 371.3139 388.34918 405.38449 415.58725 434.30768 451.34299 468.37827 485.41354 502.44882 529.68689 546.72217 580.79272 597.82806 614.86334 631.89862 648.9339 665.96918 683.00446 700.03973 710.24255 728.96295 745.99823 763.03351 780.06879 797.10406 805.6217"
             y="30.639099"
             sodipodi:role="line"
             id="tspan639"> sky130_fd_sc_hs sky130_fd_sc_ms sky130_fd_sc_ls</tspan><tspan
             x="-34.070702 -0.000132 17.035152 34.070435 51.105721 68.141006 85.176285 102.21157 119.24686 129.44965 148.17007 165.20535 182.24065 199.27592 216.3112 224.82886 243.54929 286.13748 303.17276 320.20807 337.24335 354.27863 371.3139 388.34918 405.38449 415.58725 434.30768 451.34299 468.37827 485.41354 502.44882 521.16925 538.20453"
             y="61.278198"
             sodipodi:role="line"
             id="tspan641"> sky130_fd_sc_lp sky130_fd_sc_hvl</tspan></text></g><g
         id="g645"
         transform="matrix(0,1.3333333,1.3333333,0,318.12563,-33.62255)"><text
           xml:space="preserve"
           transform="matrix(0,1,1,0,290.461,74.0422)"
           style="font-variant:normal;font-weight:bold;font-size:30.639px;font-family:Helvetica;-inkscape-font-specification:Helvetica-Bold;writing-mode:lr-tb;fill:#000000;fill-opacity:1;fill-rule:nonzero;stroke:none"
           id="text651"><tspan
             x="0 17.035284 25.552925 34.070568 54.506783 66.425354 74.942993 102.18107 110.69871 120.9015 129.41913 146.45442 163.4897 172.00734 190.72777 207.76306 224.79834 233.31598 250.35127 267.38657 284.42184 292.93948 301.45712 309.97476 327.01004 345.73047 362.76575 371.28342 390.00385"
             y="0"
             sodipodi:role="line"
             id="tspan647">2. Primitive devices / analog</tspan><tspan
             x="0"
             y="30.639099"
             id="tspan649"> </tspan></text></g><g
         id="g653"
         transform="matrix(0,1.3333333,1.3333333,0,318.12563,-33.62255)"><text
           xml:space="preserve"
           transform="matrix(0,1,1,0,321.1,116.63)"
           style="font-variant:normal;font-weight:bold;font-size:30.639px;font-family:Helvetica;-inkscape-font-specification:Helvetica-Bold;writing-mode:lr-tb;fill:#2e8b57;fill-opacity:1;fill-rule:nonzero;stroke:none"
           id="text657"><tspan
             x="0 17.035284 34.070568 51.10585 68.141136 85.176422 102.2117 119.24699 129.44977 148.1702 165.20549 183.92592"
             y="0"
             sodipodi:role="line"
             id="tspan655">sky130_fd_pr</tspan></text></g><g
         id="g659"
         transform="matrix(0,1.3333333,1.3333333,0,318.12563,-51.62255)"><text
           xml:space="preserve"
           transform="matrix(0,1,1,0,382.378,74.0734)"
           style="font-variant:normal;font-weight:bold;font-size:30.639px;font-family:Helvetica;-inkscape-font-specification:Helvetica-Bold;writing-mode:lr-tb;fill:#000000;fill-opacity:1;fill-rule:nonzero;stroke:none"
           id="text665"><tspan
             x="0 17.035284 25.552925 34.070568 42.588211 51.10585 74.942993 83.460632 100.49592 117.5312 126.04884 134.56648"
             y="0"
             sodipodi:role="line"
             id="tspan661">3. I/O cells</tspan><tspan
             x="0"
             y="30.639099"
             id="tspan663"> </tspan></text></g><g
         id="g667"
         transform="matrix(0,1.3333333,1.3333333,0,318.12563,-51.62255)"><text
           xml:space="preserve"
           transform="matrix(0,1,1,0,413.017,116.662)"
           style="font-variant:normal;font-weight:bold;font-size:30.639px;font-family:Helvetica;-inkscape-font-specification:Helvetica-Bold;writing-mode:lr-tb;fill:#2e8b57;fill-opacity:1;fill-rule:nonzero;stroke:none"
           id="text671"><tspan
             x="0 17.035284 34.070568 51.10585 68.141136 85.176422 102.2117 119.24699 129.44977 148.1702 165.20549 173.72313"
             y="0"
             sodipodi:role="line"
             id="tspan669">sky130_fd_io</tspan></text></g><g
         id="g673"
         transform="matrix(0,1.3333333,1.3333333,0,318.12563,-71.62255)"><text
           xml:space="preserve"
           transform="matrix(0,1,1,0,474.295,74.2266)"
           style="font-variant:normal;font-weight:bold;font-size:30.639px;font-family:Helvetica;-inkscape-font-specification:Helvetica-Bold;writing-mode:lr-tb;fill:#000000;fill-opacity:1;fill-rule:nonzero;stroke:none"
           id="text679"><tspan
             x="0 17.035284 25.552925 34.070568 51.10585 63.024422 81.74485 91.947639 110.66807 127.70335 139.62192 149.82471 166.86 175.37764 183.89528 192.41292 211.13335 223.05193 240.0872 252.00577 260.52341 277.55872"
             y="0"
             sodipodi:role="line"
             id="tspan675">4. 3rd-party libraries</tspan><tspan
             x="0"
             y="30.639099"
             id="tspan677"> </tspan></text></g><g
         id="g681"
         transform="matrix(0,1.3333333,1.3333333,0,318.12563,-71.62255)"><text
           xml:space="preserve"
           transform="matrix(0,1,1,0,504.934,116.815)"
           style="font-variant:normal;font-weight:bold;font-size:30.639px;font-family:Helvetica;-inkscape-font-specification:Helvetica-Bold;writing-mode:lr-tb;fill:#2e8b57;fill-opacity:1;fill-rule:nonzero;stroke:none"
           id="text687"><tspan
             x="0 17.035284 34.070568 51.10585 68.141136 85.176422 102.2117 119.24699 146.48506 155.0027 172.03798 189.07327 206.10855 223.14384 241.86427"
             y="0"
             sodipodi:role="line"
             id="tspan683">sky130_ml_xx_hd</tspan><tspan
             x="-42.588299 -9.0000001e-05 17.035194 34.070477 51.105762 68.141045 85.176331 102.21162 119.24689 136.28218 148.20076 165.23604 192.47411 209.5094 236.74747 253.78275 270.81802 282.7366 301.45703"
             y="30.639099"
             sodipodi:role="line"
             id="tspan685"> sky130_sram_macros</tspan></text></g></g></g></svg>
